# xmcd
#
# Track frame offsets:
#	150
#	21202
#	33044
#	46269
#	61712
#	74018
#	91116
#	105973
#	121416
#	136553
#	145940
#	162251
#	178446
#	192747
#	201636
#	216983
#	232375
#	248317
#	263593
#
# Disc length: 3730 seconds
#
# Revision: 0
# Processed by: cddbd v1.5.2PL0 Copyright (c) Steve Scherf et al.
# Submitted via: dBpowerAMP V4.0
#
DISCID=120e9013
DTITLE=Marcos and Belutti - Marcos and Belutti
DYEAR=2010
DGENRE=Country
TTITLE0=Frio da Madrugada
TTITLE1=Bora se acabar
TTITLE2=Pra dançar vaneira
TTITLE3=Quem ve cara não ve coração
TTITLE4=Acabou pra mim
TTITLE5=Só Láia Láia
TTITLE6=Vem me amar
TTITLE7=Sete Sentidos
TTITLE8=Você não merece
TTITLE9=Chumbo trocado
TTITLE10=Depois a gente vê
TTITLE11=Clube FM
TTITLE12=Como é bom
TTITLE13=Morto de saudade
TTITLE14=Um absurdo
TTITLE15=Solidão a dois
TTITLE16=Seu brinquedo quebrou
TTITLE17=Tudo no olhar
TTITLE18=Outra vez lá vou eu
EXTD=Marcos and Belutti
EXTT0=
EXTT1=
EXTT2=
EXTT3=
EXTT4=
EXTT5=
EXTT6=
EXTT7=
EXTT8=
EXTT9=
EXTT10=
EXTT11=
EXTT12=
EXTT13=
EXTT14=
EXTT15=
EXTT16=
EXTT17=
EXTT18=
PLAYORDER=
